<?xml version="1.0" encoding="UTF-8"?><svg xmlns="http://www.w3.org/2000/svg" xmlns:xlink="http://www.w3.org/1999/xlink" height="287.9" preserveAspectRatio="xMidYMid meet" version="1.0" viewBox="-0.6 0.0 297.1 287.9" width="297.1" zoomAndPan="magnify"><defs><clipPath id="a"><path d="M 39 95 L 291 95 L 291 287.910156 L 39 287.910156 Z M 39 95"/></clipPath><clipPath id="b"><path d="M 10 0 L 296.550781 0 L 296.550781 243 L 10 243 Z M 10 0"/></clipPath></defs><g><g clip-path="url(#a)" id="change1_1"><path d="M 107.109375 282.367188 C 104.507812 282.367188 101.910156 282.367188 99.410156 282.367188 C 99.410156 280.867188 99.507812 279.269531 99.507812 277.769531 C 99.710938 272.667969 99.910156 267.46875 100.210938 262.367188 C 101.007812 249.96875 101.910156 237.367188 104.507812 225.167969 C 105.210938 221.769531 100.007812 220.367188 99.308594 223.769531 C 96.609375 236.46875 95.609375 249.46875 94.808594 262.367188 C 94.507812 267.769531 94.210938 273.167969 94.007812 278.667969 C 93.910156 280.96875 93.609375 283.566406 94.007812 285.769531 C 94.308594 287.167969 95.507812 287.769531 96.710938 287.667969 C 100.210938 287.769531 103.609375 287.867188 107.109375 287.769531 C 110.609375 287.667969 110.609375 282.269531 107.109375 282.367188 Z M 54.210938 262.269531 C 53.410156 249.367188 52.410156 236.269531 49.710938 223.667969 C 49.007812 220.269531 43.808594 221.667969 44.507812 225.066406 C 47.109375 237.269531 48.007812 249.867188 48.808594 262.269531 C 49.109375 267.367188 49.410156 272.566406 49.507812 277.667969 C 49.609375 279.167969 49.609375 280.769531 49.609375 282.269531 C 47.007812 282.367188 44.507812 282.367188 41.910156 282.269531 C 38.410156 282.167969 38.410156 287.667969 41.910156 287.667969 C 45.410156 287.769531 48.910156 287.667969 52.308594 287.566406 C 53.507812 287.667969 54.710938 287.066406 55.007812 285.667969 C 55.410156 283.367188 55.109375 280.769531 55.007812 278.566406 C 54.808594 273.066406 54.609375 267.667969 54.210938 262.269531 Z M 205.011719 284.46875 C 204.910156 284.769531 204.910156 284.667969 205.011719 284.46875 Z M 217.109375 173.769531 C 216.808594 178.566406 216.609375 183.269531 216.308594 188.066406 C 215.109375 208.167969 214.011719 228.167969 212.808594 248.269531 C 212.308594 257.066406 211.808594 265.769531 211.210938 274.566406 C 211.011719 277.769531 211.609375 282.667969 210.410156 285.769531 C 209.910156 287.066406 208.808594 287.667969 207.710938 287.667969 C 207.710938 287.667969 207.808594 287.667969 207.808594 287.769531 C 204.308594 287.867188 200.910156 287.96875 197.410156 287.867188 C 193.910156 287.769531 193.910156 282.367188 197.410156 282.46875 C 200.011719 282.46875 202.710938 282.46875 205.308594 282.367188 C 205.410156 281.769531 205.410156 281.269531 205.511719 280.667969 C 205.710938 277.367188 205.910156 274.066406 206.109375 270.667969 C 208.109375 238.367188 209.910156 206.066406 211.808594 173.867188 C 211.910156 170.367188 217.308594 170.269531 217.109375 173.769531 Z M 261.511719 282.367188 C 258.910156 282.367188 256.210938 282.367188 253.609375 282.269531 C 253.609375 281.96875 253.511719 281.769531 253.511719 281.667969 C 253.308594 278.96875 253.109375 276.269531 253.011719 273.46875 C 252.410156 264.566406 251.910156 255.566406 251.410156 246.667969 C 250.210938 226.867188 249.109375 207.066406 247.910156 187.269531 C 247.609375 182.769531 247.410156 178.269531 247.109375 173.769531 C 246.910156 170.269531 241.511719 170.269531 241.710938 173.769531 C 243.609375 206.269531 245.410156 238.867188 247.410156 271.367188 C 247.609375 274.769531 247.808594 278.066406 248.011719 281.46875 C 248.109375 282.667969 247.910156 284.46875 248.410156 285.667969 C 248.910156 286.96875 250.011719 287.566406 251.109375 287.566406 C 251.109375 287.566406 251.011719 287.566406 251.011719 287.667969 C 254.511719 287.769531 257.910156 287.867188 261.410156 287.769531 C 265.011719 287.667969 265.011719 282.269531 261.511719 282.367188 Z M 290.308594 203.167969 L 290.011719 199.769531 C 289.710938 196.46875 287.210938 193.769531 284.109375 193.167969 C 282.609375 180.769531 280.609375 168.46875 278.410156 156.167969 C 276.308594 144.46875 273.808594 132.867188 270.511719 121.46875 C 268.011719 112.96875 265.308594 104.167969 260.109375 96.96875 C 258.109375 94.167969 253.910156 97.46875 255.910156 100.367188 C 261.109375 107.769531 263.808594 117.167969 266.109375 125.769531 C 269.210938 136.867188 271.511719 148.269531 273.511719 159.566406 C 275.511719 170.867188 277.308594 182.269531 278.710938 193.769531 C 275.710938 194.96875 273.710938 197.96875 274.011719 201.269531 L 274.308594 204.667969 C 274.609375 208.769531 278.308594 211.769531 282.308594 211.46875 L 283.511719 211.367188 C 287.609375 210.867188 290.609375 207.269531 290.308594 203.167969 Z M 188.910156 164.167969 C 185.808594 174.367188 183.011719 184.667969 180.410156 194.96875 C 181.410156 195.96875 182.210938 197.167969 182.511719 198.667969 L 183.308594 201.96875 C 184.210938 205.96875 181.710938 209.96875 177.808594 210.867188 L 176.609375 211.167969 C 172.609375 212.066406 168.609375 209.566406 167.710938 205.667969 L 166.910156 202.367188 C 166.410156 200.367188 166.808594 198.367188 167.808594 196.769531 C 158.109375 180.566406 146.210938 165.867188 132.109375 153.167969 C 129.507812 150.867188 133.410156 146.96875 135.910156 149.367188 C 150.109375 162.269531 162.308594 177.167969 172.109375 193.566406 C 172.210938 193.566406 172.308594 193.46875 172.410156 193.46875 L 173.609375 193.167969 C 174.210938 193.066406 174.808594 192.96875 175.308594 192.96875 C 178.011719 182.066406 181.109375 171.167969 184.308594 160.367188 C 187.808594 148.96875 191.511719 137.667969 196.109375 126.769531 C 199.511719 118.667969 203.308594 110.167969 209.210938 103.570312 C 211.511719 100.96875 215.308594 104.769531 213.011719 107.367188 C 207.011719 114.070312 203.308594 123.167969 199.910156 131.367188 C 195.808594 142.070312 192.210938 153.066406 188.910156 164.167969" fill="#5a3437"/></g><g id="change2_1"><path d="M 144.910156 160.667969 C 143.507812 154.667969 141.210938 148.566406 142.609375 142.570312 C 143.308594 139.667969 144.808594 136.96875 145.507812 134.070312 C 146.710938 128.867188 145.007812 123.167969 141.410156 119.46875 C 137.910156 115.769531 132.710938 113.96875 127.710938 114.46875 C 124.910156 114.769531 122.210938 115.667969 119.410156 115.46875 C 116.308594 115.269531 113.507812 113.769531 110.609375 112.570312 C 102.410156 109.367188 93.210938 109.46875 85.109375 112.667969 C 81.507812 114.070312 68.910156 113.769531 66.507812 112.367188 C 57.710938 107.269531 44.507812 111.46875 41.007812 112.167969 C 33.910156 113.667969 30.308594 112.070312 23.109375 111.46875 C 13.507812 110.570312 4.609375 124.167969 4.609375 124.167969 C 0.910156 131.46875 -0.589844 139.96875 0.210938 148.269531 C 1.410156 159.46875 4.609375 169.566406 6.210938 180.769531 C 7.410156 189.066406 8.507812 197.667969 6.410156 205.867188 C 4.710938 212.769531 2.109375 219.769531 2.710938 226.96875 C 2.808594 228.269531 3.007812 229.566406 3.609375 230.667969 C 4.308594 231.867188 5.308594 232.667969 6.410156 233.367188 C 7.410156 233.96875 8.507812 234.46875 9.609375 234.769531 C 17.210938 237.269531 25.109375 236.867188 33.308594 237.367188 C 41.410156 237.96875 52.410156 241.769531 60.308594 239.566406 C 64.410156 238.46875 67.910156 235.96875 72.109375 235.167969 C 77.710938 234.066406 79.109375 234.566406 84.410156 235.769531 C 92.710938 237.566406 99.609375 240.96875 107.910156 239.667969 C 112.210938 238.96875 116.210938 236.367188 120.609375 236.066406 C 125.007812 235.867188 129.109375 237.96875 133.410156 239.167969 C 134.507812 239.46875 137.609375 236.167969 138.410156 236.066406 C 140.808594 235.769531 142.210938 233.769531 144.007812 230.769531 C 145.910156 227.667969 147.210938 223.269531 145.210938 218.769531 C 143.210938 214.269531 143.007812 210.269531 143.007812 205.269531 C 143.007812 200.167969 146.007812 195.667969 147.007812 190.769531 C 147.609375 187.566406 147.410156 184.367188 147.210938 181.066406 C 147.007812 174.066406 146.507812 167.269531 144.910156 160.667969 Z M 290.308594 30.96875 C 289.910156 41.769531 284.910156 54.070312 283.808594 63.769531 C 282.710938 73.46875 279.511719 77.167969 275.511719 87.46875 C 271.511719 97.769531 272.308594 108.167969 269.410156 120.46875 C 266.511719 132.769531 261.808594 135.96875 259.308594 155.167969 C 256.808594 174.367188 249.609375 185.769531 246.109375 202.269531 C 242.609375 218.769531 238.308594 230.769531 238.308594 230.769531 C 236.910156 235.066406 235.210938 239.167969 228.011719 239.269531 C 220.808594 239.367188 220.210938 230.769531 220.210938 230.769531 C 218.210938 214.46875 204.910156 195.46875 203.109375 186.46875 C 201.308594 177.46875 197.710938 170.167969 197.410156 163.367188 C 197.109375 156.46875 193.109375 142.667969 190.308594 134.167969 C 187.511719 125.570312 189.011719 117.167969 185.511719 108.570312 C 182.011719 99.96875 180.410156 89.070312 177.109375 81.46875 C 173.910156 73.867188 171.710938 60.167969 171.011719 54.367188 C 170.308594 48.570312 162.308594 41.367188 167.410156 34.570312 C 172.410156 27.667969 223.710938 19.867188 230.808594 19.46875 C 237.910156 19.070312 254.710938 17.269531 256.511719 16.46875 C 258.210938 15.570312 290.609375 20.070312 290.308594 30.96875" fill="#f9ac0c"/></g><g id="change3_1"><path d="M 218.011719 123.96875 C 216.308594 125.269531 210.109375 131.167969 214.511719 132.269531 C 216.410156 132.769531 220.109375 129.570312 222.210938 130.070312 C 224.308594 130.570312 227.011719 132.367188 227.910156 129.96875 C 228.808594 127.570312 225.410156 126.867188 224.011719 124.867188 C 222.511719 123.070312 219.609375 122.667969 218.011719 123.96875 Z M 242.808594 82.367188 C 244.109375 82.46875 246.109375 82.367188 244.210938 80.46875 C 242.308594 78.570312 242.308594 76.46875 241.808594 74.769531 C 241.308594 73.070312 237.808594 73.570312 237.011719 75.46875 C 235.710938 78.769531 241.511719 82.269531 242.808594 82.367188 Z M 94.609375 172.367188 C 92.210938 174.269531 96.210938 175.066406 96.808594 176.566406 C 97.410156 178.066406 99.808594 180.867188 103.308594 180.066406 C 106.808594 179.269531 108.710938 173.769531 105.609375 173.066406 C 101.410156 172.066406 97.007812 170.46875 94.609375 172.367188 Z M 50.210938 180.066406 C 53.710938 180.867188 56.210938 178.066406 56.710938 176.566406 C 57.210938 175.066406 61.308594 174.269531 58.910156 172.367188 C 56.507812 170.46875 52.109375 172.066406 47.910156 173.066406 C 44.910156 173.769531 46.710938 179.269531 50.210938 180.066406 Z M 91.109375 221.066406 C 87.109375 217.769531 87.007812 215.367188 86.210938 211.367188 C 85.308594 207.46875 86.710938 199.667969 83.507812 199.167969 C 80.308594 198.667969 76.808594 199.167969 77.507812 204.167969 C 78.109375 208.46875 79.007812 216.96875 85.609375 221.769531 C 92.210938 226.566406 94.710938 225.867188 95.410156 224.269531 C 96.109375 222.566406 95.007812 224.367188 91.109375 221.066406 Z M 144.910156 160.667969 C 144.507812 158.769531 143.910156 156.867188 143.410156 155.066406 C 143.410156 155.066406 139.507812 159.769531 141.109375 166.066406 C 142.710938 172.367188 142.808594 178.867188 136.507812 179.769531 C 130.210938 180.667969 128.609375 177.96875 126.808594 182.769531 C 125.007812 187.566406 134.808594 189.167969 135.109375 192.96875 C 135.507812 196.769531 135.507812 214.167969 145.910156 219.867188 C 145.808594 219.46875 145.609375 219.066406 145.507812 218.667969 C 143.507812 214.167969 143.308594 210.167969 143.308594 205.167969 C 143.308594 200.066406 146.308594 195.566406 147.308594 190.667969 C 147.910156 187.46875 147.710938 184.269531 147.507812 180.96875 C 147.007812 174.066406 146.507812 167.269531 144.910156 160.667969 Z M 7.910156 140.167969 C 8.410156 137.570312 8.210938 134.570312 9.808594 132.570312 C 11.910156 129.96875 15.808594 130.167969 19.109375 130.367188 C 22.410156 130.46875 26.507812 129.867188 27.609375 126.769531 C 27.808594 126.070312 27.910156 125.367188 28.210938 124.769531 C 28.910156 122.96875 30.910156 122.070312 32.808594 121.667969 C 34.710938 121.269531 36.710938 121.269531 38.507812 120.570312 C 42.210938 119.167969 44.007812 115.269531 44.910156 111.269531 C 43.210938 111.667969 41.808594 111.96875 41.007812 112.167969 C 33.910156 113.667969 30.308594 112.070312 23.109375 111.46875 C 13.507812 110.570312 4.609375 124.167969 4.609375 124.167969 C 0.910156 131.46875 -0.589844 139.96875 0.210938 148.269531 C 0.210938 148.46875 0.308594 148.667969 0.308594 148.96875 L 1.007812 149.46875 C 4.609375 147.46875 7.210938 143.96875 7.910156 140.167969 Z M 31.910156 185.867188 C 33.507812 184.167969 35.308594 182.269531 36.109375 179.96875 C 36.910156 177.769531 37.308594 175.269531 37.210938 172.769531 C 37.109375 170.269531 36.007812 167.96875 35.007812 165.867188 C 33.910156 163.667969 32.308594 161.96875 30.507812 160.367188 C 28.710938 158.769531 26.808594 157.46875 24.507812 156.667969 C 22.308594 155.867188 20.007812 155.566406 17.507812 155.769531 C 15.007812 155.867188 12.710938 156.367188 10.609375 157.367188 C 8.410156 158.367188 6.808594 160.066406 5.109375 161.769531 C 4.308594 162.566406 3.710938 163.46875 3.109375 164.367188 C 4.308594 169.667969 5.507812 175.066406 6.308594 180.566406 C 6.609375 182.96875 7.007812 185.367188 7.210938 187.769531 C 8.710938 188.867188 10.308594 189.867188 12.109375 190.46875 C 14.308594 191.269531 16.710938 191.769531 19.210938 191.667969 C 21.710938 191.566406 24.109375 191.066406 26.308594 190.167969 C 28.507812 189.269531 30.308594 187.566406 31.910156 185.867188 Z M 69.808594 129.46875 C 68.007812 127.867188 66.109375 126.570312 63.808594 125.769531 C 61.609375 124.96875 59.308594 124.667969 56.808594 124.867188 C 54.308594 124.96875 52.007812 125.46875 49.910156 126.46875 C 47.710938 127.46875 46.109375 129.167969 44.410156 130.867188 C 42.808594 132.570312 41.710938 134.570312 40.910156 136.769531 C 40.109375 138.96875 39.308594 141.070312 39.410156 143.570312 C 39.507812 146.066406 40.410156 148.167969 41.410156 150.269531 C 42.507812 152.46875 43.609375 154.46875 45.410156 156.066406 C 47.210938 157.667969 49.210938 158.96875 51.507812 159.769531 C 53.710938 160.566406 56.109375 161.066406 58.609375 160.96875 C 61.109375 160.867188 63.507812 160.367188 65.710938 159.46875 C 67.910156 158.46875 69.710938 156.769531 71.410156 154.96875 C 73.007812 153.269531 74.808594 151.367188 75.609375 149.066406 C 76.410156 146.867188 76.808594 144.367188 76.710938 141.867188 C 76.609375 139.367188 75.507812 137.070312 74.507812 134.96875 C 73.308594 132.769531 71.609375 131.070312 69.808594 129.46875 Z M 90.507812 124.769531 C 93.007812 124.867188 94.910156 122.769531 97.308594 121.867188 C 98.910156 121.269531 100.710938 121.269531 102.410156 121.367188 C 106.007812 121.570312 109.710938 121.96875 113.308594 122.667969 C 115.109375 123.070312 117.007812 123.46875 118.808594 123.269531 C 123.308594 122.867188 127.007812 119.167969 131.507812 118.46875 C 135.710938 117.769531 140.007812 119.867188 143.308594 122.570312 C 143.609375 122.769531 143.910156 123.070312 144.109375 123.269531 C 143.410156 121.867188 142.507812 120.570312 141.507812 119.46875 C 138.007812 115.769531 132.808594 113.96875 127.808594 114.46875 C 125.007812 114.769531 122.308594 115.667969 119.507812 115.46875 C 116.410156 115.269531 113.609375 113.769531 110.710938 112.570312 C 102.507812 109.367188 93.308594 109.46875 85.210938 112.667969 C 84.910156 112.769531 84.410156 112.867188 84.007812 112.96875 C 84.609375 114.667969 84.808594 116.46875 85.210938 118.269531 C 85.710938 121.269531 87.410156 124.667969 90.507812 124.769531 Z M 124.410156 194.066406 C 122.609375 192.46875 120.710938 191.167969 118.410156 190.367188 C 116.210938 189.566406 113.910156 189.269531 111.410156 189.46875 C 108.910156 189.566406 106.609375 190.066406 104.507812 191.066406 C 102.308594 192.066406 100.710938 193.769531 99.007812 195.46875 C 97.410156 197.167969 96.308594 199.167969 95.507812 201.367188 C 94.710938 203.566406 93.910156 205.667969 94.007812 208.167969 C 94.109375 210.667969 95.007812 212.769531 96.007812 214.867188 C 97.109375 217.066406 98.210938 219.066406 100.007812 220.667969 C 101.808594 222.269531 103.808594 223.566406 106.109375 224.367188 C 108.308594 225.167969 110.710938 225.667969 113.210938 225.566406 C 115.710938 225.46875 118.109375 224.96875 120.308594 224.066406 C 122.507812 223.066406 124.308594 221.367188 126.007812 219.566406 C 127.609375 217.867188 129.410156 215.96875 130.210938 213.667969 C 131.007812 211.46875 131.410156 208.96875 131.308594 206.46875 C 131.210938 203.96875 130.109375 201.667969 129.109375 199.566406 C 127.808594 197.367188 126.210938 195.667969 124.410156 194.066406 Z M 116.210938 173.066406 C 118.710938 172.96875 121.109375 172.46875 123.308594 171.566406 C 125.507812 170.566406 127.308594 168.867188 129.007812 167.066406 C 130.609375 165.367188 132.410156 163.46875 133.210938 161.167969 C 134.007812 158.96875 134.410156 156.46875 134.308594 153.96875 C 134.210938 151.46875 133.109375 149.167969 132.109375 147.066406 C 131.007812 144.867188 129.410156 143.167969 127.609375 141.570312 C 125.808594 139.96875 123.910156 138.667969 121.609375 137.867188 C 119.410156 137.070312 117.109375 136.769531 114.609375 136.96875 C 112.109375 137.070312 109.808594 137.570312 107.710938 138.570312 C 105.507812 139.570312 103.910156 141.269531 102.210938 142.96875 C 100.609375 144.667969 99.507812 146.667969 98.710938 148.867188 C 97.910156 151.066406 97.109375 153.167969 97.210938 155.667969 C 97.308594 158.167969 98.210938 160.269531 99.210938 162.367188 C 100.308594 164.566406 101.410156 166.566406 103.210938 168.167969 C 105.007812 169.769531 107.007812 171.066406 109.308594 171.867188 C 111.410156 172.566406 113.808594 173.167969 116.210938 173.066406 Z M 60.808594 199.769531 C 59.007812 198.167969 57.109375 196.867188 54.808594 196.066406 C 52.609375 195.269531 50.308594 194.96875 47.808594 195.167969 C 45.308594 195.269531 43.007812 195.769531 40.910156 196.769531 C 38.710938 197.769531 37.109375 199.46875 35.410156 201.167969 C 33.808594 202.867188 32.710938 204.867188 31.910156 207.066406 C 31.109375 209.269531 30.308594 211.367188 30.410156 213.867188 C 30.507812 216.367188 31.410156 218.46875 32.410156 220.566406 C 33.507812 222.769531 34.609375 224.769531 36.410156 226.367188 C 38.210938 227.96875 40.210938 229.269531 42.507812 230.066406 C 44.710938 230.867188 47.109375 231.367188 49.609375 231.269531 C 52.109375 231.167969 54.507812 230.667969 56.710938 229.769531 C 58.910156 228.769531 60.710938 227.066406 62.410156 225.269531 C 64.007812 223.566406 65.808594 221.667969 66.609375 219.367188 C 67.410156 217.167969 67.808594 214.667969 67.710938 212.167969 C 67.609375 209.667969 66.507812 207.367188 65.507812 205.269531 C 64.308594 203.066406 62.609375 201.367188 60.808594 199.769531 Z M 289.710938 28.46875 C 280.609375 26.269531 260.210938 21.867188 242.109375 18.46875 C 237.808594 18.96875 233.511719 19.269531 230.710938 19.46875 C 223.609375 19.867188 172.308594 27.769531 167.308594 34.570312 C 163.609375 39.667969 166.910156 44.867188 169.210938 49.667969 C 169.210938 49.667969 171.511719 49.070312 172.609375 46.367188 C 173.609375 43.667969 176.210938 42.269531 179.308594 42.570312 C 182.410156 42.867188 187.410156 42.46875 193.410156 37.867188 C 199.410156 33.269531 205.210938 32.167969 207.609375 33.570312 C 210.011719 34.96875 213.109375 34.96875 215.410156 33.070312 C 217.710938 31.167969 222.210938 30.070312 226.109375 31.867188 C 230.011719 33.667969 238.011719 35.269531 242.308594 34.667969 C 246.609375 34.167969 250.609375 31.867188 256.011719 34.367188 C 261.410156 36.96875 261.308594 38.96875 263.308594 39.667969 C 265.308594 40.367188 267.109375 37.667969 270.109375 38.769531 C 273.109375 39.867188 271.410156 41.570312 274.609375 42.570312 C 277.808594 43.46875 283.808594 39.769531 287.808594 45.570312 C 289.011719 40.667969 290.011719 35.769531 290.210938 31.070312 C 290.308594 30.070312 290.109375 29.269531 289.710938 28.46875 Z M 183.308594 80.167969 C 185.109375 81.769531 187.109375 83.070312 189.410156 83.867188 C 191.609375 84.667969 194.011719 85.167969 196.511719 85.070312 C 199.011719 84.96875 201.410156 84.46875 203.609375 83.570312 C 205.808594 82.570312 207.609375 80.867188 209.308594 79.070312 C 210.910156 77.367188 212.710938 75.46875 213.511719 73.167969 C 214.308594 70.96875 214.710938 68.46875 214.609375 65.96875 C 214.511719 63.46875 213.410156 61.167969 212.410156 59.070312 C 211.308594 56.867188 209.710938 55.167969 207.910156 53.570312 C 206.109375 51.96875 204.210938 50.667969 201.910156 49.867188 C 199.710938 49.070312 197.410156 48.769531 194.910156 48.96875 C 192.410156 49.070312 190.109375 49.570312 188.011719 50.570312 C 185.808594 51.570312 184.210938 53.269531 182.511719 54.96875 C 180.910156 56.667969 179.808594 58.667969 179.011719 60.867188 C 178.210938 63.070312 177.410156 65.167969 177.511719 67.667969 C 177.609375 70.167969 178.511719 72.269531 179.511719 74.367188 C 180.308594 76.667969 181.511719 78.667969 183.308594 80.167969 Z M 210.210938 122.46875 C 211.808594 120.769531 213.609375 118.867188 214.410156 116.570312 C 214.808594 115.46875 215.109375 114.367188 215.308594 113.167969 L 215.511719 113.269531 C 215.511719 113.269531 220.109375 108.570312 218.710938 102.667969 C 217.308594 96.769531 219.011719 92.769531 222.109375 89.867188 C 225.210938 86.96875 227.910156 83.167969 225.210938 79.769531 C 222.511719 76.367188 220.109375 77.070312 216.308594 80.769531 C 212.511719 84.46875 206.910156 89.667969 199.011719 88.667969 C 195.910156 88.269531 194.808594 90.070312 194.609375 92.46875 C 192.609375 92.667969 190.710938 93.167969 188.910156 93.96875 C 186.710938 94.96875 185.109375 96.667969 183.410156 98.367188 C 183.011719 98.769531 182.710938 99.167969 182.410156 99.570312 C 183.308594 102.667969 184.210938 105.667969 185.410156 108.46875 C 187.910156 114.570312 187.910156 120.46875 188.609375 126.46875 C 189.210938 126.769531 189.808594 127.070312 190.410156 127.269531 C 192.609375 128.070312 195.011719 128.570312 197.511719 128.46875 C 200.011719 128.367188 202.410156 127.867188 204.609375 126.96875 C 206.808594 125.867188 208.609375 124.167969 210.210938 122.46875 Z M 222.609375 178.96875 C 225.109375 178.867188 227.511719 178.367188 229.710938 177.46875 C 231.910156 176.46875 233.710938 174.769531 235.410156 172.96875 C 237.011719 171.269531 238.808594 169.367188 239.609375 167.066406 C 240.410156 164.867188 240.808594 162.367188 240.710938 159.867188 C 240.609375 157.367188 239.511719 155.066406 238.511719 152.96875 C 237.410156 150.769531 235.808594 149.066406 234.011719 147.46875 C 232.210938 145.867188 230.308594 144.570312 228.011719 143.769531 C 225.808594 142.96875 223.511719 142.667969 221.011719 142.867188 C 218.511719 142.96875 216.210938 143.46875 214.109375 144.46875 C 211.910156 145.46875 210.308594 147.167969 208.609375 148.867188 C 207.011719 150.566406 205.910156 152.566406 205.109375 154.769531 C 204.308594 156.96875 203.511719 159.066406 203.609375 161.566406 C 203.710938 164.066406 204.609375 166.167969 205.609375 168.269531 C 206.710938 170.46875 207.808594 172.46875 209.609375 174.066406 C 211.410156 175.667969 213.410156 176.96875 215.710938 177.769531 C 217.808594 178.46875 220.109375 179.066406 222.609375 178.96875 Z M 279.808594 62.96875 C 278.410156 60.867188 276.808594 58.96875 274.910156 57.667969 C 272.910156 56.269531 270.511719 55.570312 268.210938 55.070312 C 265.910156 54.570312 263.410156 54.070312 261.011719 54.46875 C 258.710938 54.867188 256.308594 55.867188 254.308594 57.269531 C 252.210938 58.667969 250.808594 60.667969 249.511719 62.667969 C 248.210938 64.667969 247.511719 66.96875 247.109375 69.269531 C 246.710938 71.570312 246.511719 73.96875 247.011719 76.367188 C 247.511719 78.667969 248.410156 80.769531 249.808594 82.867188 C 251.210938 84.96875 252.808594 86.667969 254.710938 87.96875 C 256.710938 89.367188 259.011719 89.867188 261.308594 90.367188 C 263.609375 90.867188 265.808594 90.769531 268.210938 90.367188 C 270.511719 89.96875 272.710938 89.570312 274.808594 88.167969 C 275.011719 88.070312 275.109375 87.96875 275.308594 87.769531 C 275.410156 87.570312 275.410156 87.46875 275.511719 87.269531 C 278.410156 79.667969 281.011719 75.570312 282.511719 70.070312 C 282.511719 69.867188 282.511719 69.667969 282.410156 69.46875 C 282.011719 67.367188 281.210938 65.070312 279.808594 62.96875 Z M 261.609375 102.167969 C 259.808594 100.570312 257.910156 99.269531 255.609375 98.46875 C 253.410156 97.667969 251.109375 97.367188 248.609375 97.570312 C 246.109375 97.667969 243.808594 98.167969 241.710938 99.167969 C 239.511719 100.167969 237.910156 101.867188 236.210938 103.570312 C 234.609375 105.269531 233.511719 107.269531 232.710938 109.46875 C 231.910156 111.667969 231.109375 113.769531 231.210938 116.269531 C 231.308594 118.769531 232.210938 120.867188 233.210938 122.96875 C 234.308594 125.167969 235.410156 127.167969 237.210938 128.769531 C 239.011719 130.367188 241.011719 131.667969 243.308594 132.46875 C 245.511719 133.269531 247.910156 133.769531 250.410156 133.667969 C 252.910156 133.570312 255.308594 133.070312 257.511719 132.167969 C 259.710938 131.167969 261.511719 129.46875 263.210938 127.667969 C 264.808594 125.96875 266.609375 124.070312 267.410156 121.769531 C 268.210938 119.570312 268.609375 117.070312 268.511719 114.570312 C 268.410156 112.070312 267.308594 109.769531 266.308594 107.667969 C 265.011719 105.46875 263.410156 103.769531 261.609375 102.167969 Z M 264.109375 135.269531 C 262.308594 139.96875 260.511719 145.566406 259.308594 155.066406 C 257.410156 169.367188 252.910156 179.367188 249.308594 190.367188 C 248.308594 190.269531 247.308594 190.167969 246.511719 190.066406 C 247.308594 190.566406 248.109375 191.066406 248.910156 191.667969 C 247.808594 194.96875 246.910156 198.46875 246.109375 202.167969 C 244.210938 211.066406 242.109375 218.667969 240.511719 223.769531 C 239.910156 223.867188 239.210938 223.867188 238.609375 223.96875 C 236.109375 224.066406 233.710938 223.566406 231.511719 222.769531 C 229.210938 221.96875 227.210938 220.667969 225.410156 219.066406 C 223.609375 217.46875 222.511719 215.46875 221.410156 213.269531 C 220.410156 211.167969 219.511719 209.066406 219.410156 206.566406 C 219.308594 204.066406 220.109375 201.96875 220.910156 199.769531 C 221.710938 197.46875 222.808594 195.566406 224.410156 193.867188 C 226.011719 192.167969 227.710938 190.46875 229.910156 189.46875 C 232.011719 188.46875 234.308594 187.96875 236.808594 187.867188 C 239.308594 187.769531 241.609375 188.066406 243.808594 188.769531 C 243.910156 188.867188 244.109375 188.867188 244.210938 188.96875 C 245.210938 186.96875 249.710938 180.066406 250.410156 168.769531 C 250.910156 160.46875 244.910156 156.167969 244.210938 151.46875 C 243.511719 146.769531 246.011719 143.867188 248.808594 145.066406 C 251.710938 146.269531 256.011719 144.167969 257.308594 140.769531 C 258.710938 137.46875 264.109375 135.269531 264.109375 135.269531" fill="#f68a15"/></g><g clip-path="url(#b)" id="change4_1"><path d="M 290.308594 11.570312 C 275.410156 7.070312 246.109375 -0.832031 224.808594 0.0703125 C 202.109375 0.96875 177.210938 11.867188 166.808594 16.96875 C 163.511719 18.570312 161.308594 21.769531 160.910156 25.46875 C 160.210938 32.46875 159.210938 43.46875 167.210938 45.46875 C 167.210938 45.46875 193.511719 27.367188 227.511719 27.367188 C 261.511719 27.367188 288.710938 42.167969 288.710938 42.167969 C 288.710938 42.167969 293.808594 39.96875 296.109375 29.070312 C 297.308594 22.96875 296.308594 13.46875 290.308594 11.570312 Z M 68.210938 179.167969 C 68.308594 179.46875 70.210938 187.46875 76.410156 187.46875 C 82.710938 187.46875 84.507812 179.566406 84.609375 179.167969 L 82.609375 178.769531 C 82.609375 178.867188 81.007812 185.46875 76.308594 185.46875 C 71.609375 185.46875 70.109375 178.769531 70.007812 178.769531 Z M 85.410156 173.066406 C 87.609375 173.066406 89.507812 170.867188 89.507812 168.167969 C 89.507812 165.46875 87.710938 163.269531 85.410156 163.269531 C 83.109375 163.269531 81.308594 165.46875 81.308594 168.167969 C 81.308594 170.867188 83.109375 173.066406 85.410156 173.066406 Z M 67.507812 173.066406 C 69.710938 173.066406 71.609375 170.867188 71.609375 168.167969 C 71.609375 165.46875 69.808594 163.269531 67.507812 163.269531 C 65.210938 163.269531 63.410156 165.46875 63.410156 168.167969 C 63.410156 170.867188 65.308594 173.066406 67.507812 173.066406 Z M 229.308594 62.667969 C 224.609375 62.667969 223.109375 55.96875 223.011719 55.96875 L 221.011719 56.367188 C 221.109375 56.667969 223.011719 64.667969 229.210938 64.667969 C 235.410156 64.667969 237.308594 56.769531 237.410156 56.367188 L 235.410156 55.96875 C 235.511719 56.070312 234.011719 62.667969 229.308594 62.667969 Z M 238.210938 40.570312 C 236.011719 40.570312 234.109375 42.769531 234.109375 45.46875 C 234.109375 48.167969 235.910156 50.367188 238.210938 50.367188 C 240.511719 50.367188 242.308594 48.167969 242.308594 45.46875 C 242.308594 42.769531 240.511719 40.570312 238.210938 40.570312 Z M 224.410156 45.46875 C 224.410156 42.769531 222.609375 40.570312 220.308594 40.570312 C 218.011719 40.570312 216.210938 42.769531 216.210938 45.46875 C 216.210938 48.167969 218.011719 50.367188 220.308594 50.367188 C 222.609375 50.367188 224.410156 48.070312 224.410156 45.46875 Z M 138.910156 235.867188 C 130.710938 246.96875 104.007812 241.46875 89.910156 240.96875 C 74.308594 240.367188 31.308594 241.269531 19.308594 241.269531 C 13.609375 241.269531 11.210938 238.066406 10.308594 234.667969 C 17.808594 236.867188 26.410156 233.566406 34.507812 234.167969 C 42.609375 234.769531 50.710938 239.269531 58.507812 237.066406 C 62.609375 235.96875 66.109375 233.46875 70.308594 232.667969 C 75.910156 231.566406 81.308594 231.066406 86.710938 232.269531 C 95.007812 234.066406 102.109375 237.367188 110.507812 236.066406 C 114.808594 235.367188 118.808594 232.769531 123.210938 232.46875 C 127.609375 232.269531 131.710938 234.367188 136.007812 235.566406 C 137.109375 235.96875 138.109375 236.066406 138.910156 235.867188" fill="#c45a48"/></g><g id="change5_1"><path d="M 281.609375 60.46875 C 280.609375 58.269531 279.609375 56.167969 277.910156 54.570312 C 276.210938 52.96875 274.308594 51.570312 272.011719 50.667969 C 269.808594 49.769531 267.511719 49.167969 265.011719 49.167969 C 262.511719 49.167969 260.011719 49.46875 257.910156 50.367188 C 255.609375 51.269531 253.710938 52.867188 252.011719 54.570312 C 250.308594 56.269531 248.511719 58.070312 247.511719 60.269531 C 246.609375 62.367188 246.109375 64.96875 246.109375 67.46875 C 246.109375 69.96875 247.011719 72.269531 248.011719 74.46875 C 249.011719 76.667969 250.511719 78.46875 252.210938 80.167969 C 253.910156 81.769531 255.808594 83.269531 258.011719 84.167969 C 260.210938 85.070312 262.511719 85.46875 265.011719 85.46875 C 267.511719 85.46875 269.808594 85.070312 272.011719 84.269531 C 274.308594 83.367188 276.011719 81.769531 277.710938 80.070312 C 279.410156 78.367188 280.609375 76.570312 281.511719 74.367188 C 282.410156 72.269531 283.308594 70.167969 283.308594 67.667969 C 283.308594 64.769531 282.511719 62.570312 281.609375 60.46875 Z M 213.011719 55.070312 C 212.011719 52.867188 210.308594 50.96875 208.609375 49.269531 C 206.910156 47.667969 204.910156 46.070312 202.609375 45.167969 C 200.410156 44.269531 197.910156 43.570312 195.511719 43.570312 C 193.011719 43.570312 190.609375 44.570312 188.511719 45.46875 C 186.210938 46.367188 184.210938 47.769531 182.511719 49.367188 C 180.808594 51.070312 179.910156 53.269531 178.910156 55.46875 C 178.011719 57.570312 177.410156 59.769531 177.410156 62.269531 C 177.410156 64.769531 177.308594 67.167969 178.210938 69.367188 C 179.210938 71.570312 180.511719 73.769531 182.210938 75.367188 C 183.910156 76.96875 186.210938 78.167969 188.410156 79.070312 C 190.609375 79.96875 193.011719 80.769531 195.511719 80.769531 C 198.011719 80.769531 200.109375 79.070312 202.210938 78.269531 C 204.511719 77.367188 207.011719 76.96875 208.710938 75.269531 C 210.410156 73.570312 211.511719 71.367188 212.410156 69.167969 C 213.308594 67.070312 214.210938 64.769531 214.210938 62.269531 C 214.308594 59.769531 213.910156 57.167969 213.011719 55.070312 Z M 105.007812 134.46875 C 102.910156 135.667969 100.808594 137.167969 99.410156 139.070312 C 98.007812 140.96875 97.210938 143.367188 96.609375 145.769531 C 96.007812 148.066406 95.308594 150.46875 95.609375 152.96875 C 95.910156 155.46875 97.710938 157.367188 98.910156 159.367188 C 100.109375 161.46875 101.410156 163.167969 103.308594 164.667969 C 105.210938 166.167969 107.109375 167.269531 109.410156 167.96875 C 111.609375 168.667969 113.910156 169.269531 116.410156 168.96875 C 118.910156 168.667969 121.507812 168.46875 123.507812 167.269531 C 125.609375 166.066406 127.007812 163.867188 128.507812 161.96875 C 129.910156 160.066406 131.109375 157.96875 131.710938 155.566406 C 132.308594 153.269531 132.910156 150.867188 132.609375 148.367188 C 132.308594 145.867188 130.507812 143.96875 129.308594 141.96875 C 128.109375 139.867188 127.007812 137.867188 125.109375 136.367188 C 123.210938 134.867188 121.308594 133.570312 119.007812 132.867188 C 116.808594 132.167969 114.308594 131.269531 111.910156 131.570312 C 109.210938 131.96875 107.007812 133.269531 105.007812 134.46875 Z M 253.410156 190.46875 C 252.410156 188.269531 251.308594 185.96875 249.609375 184.367188 C 247.910156 182.769531 245.609375 181.667969 243.308594 180.769531 C 241.109375 179.867188 238.808594 178.96875 236.308594 178.96875 C 233.808594 178.96875 231.710938 180.566406 229.511719 181.367188 C 227.210938 182.269531 225.410156 183.46875 223.710938 185.066406 C 222.011719 186.769531 220.609375 188.46875 219.710938 190.667969 C 218.808594 192.769531 217.910156 194.96875 217.910156 197.46875 C 217.910156 199.96875 217.808594 202.566406 218.710938 204.667969 C 219.710938 206.867188 221.609375 208.566406 223.410156 210.269531 C 225.109375 211.867188 227.109375 213.269531 229.410156 214.167969 C 231.609375 215.066406 234.011719 215.867188 236.410156 215.867188 C 238.910156 215.867188 241.011719 214.269531 243.109375 213.367188 C 245.410156 212.46875 247.410156 211.566406 249.109375 209.96875 C 250.808594 208.269531 252.308594 206.566406 253.308594 204.269531 C 254.210938 202.167969 255.410156 199.769531 255.410156 197.367188 C 255.308594 194.96875 254.308594 192.566406 253.410156 190.46875 Z M 76.710938 133.167969 C 75.710938 130.96875 74.109375 129.269531 72.410156 127.667969 C 70.710938 126.070312 69.210938 124.070312 66.910156 123.167969 C 64.710938 122.269531 62.308594 122.070312 59.808594 122.070312 C 57.308594 122.070312 55.109375 122.96875 53.007812 123.867188 C 50.710938 124.769531 48.808594 125.96875 47.109375 127.570312 C 45.410156 129.269531 43.910156 130.96875 43.007812 133.269531 C 42.109375 135.367188 42.007812 137.667969 42.007812 140.167969 C 42.007812 142.667969 42.507812 144.769531 43.410156 146.867188 C 44.410156 149.066406 45.308594 151.167969 47.007812 152.867188 C 48.710938 154.46875 50.410156 156.46875 52.710938 157.367188 C 54.910156 158.269531 57.410156 157.667969 59.910156 157.667969 C 62.410156 157.667969 65.007812 158.367188 67.109375 157.566406 C 69.410156 156.667969 70.910156 154.46875 72.609375 152.867188 C 74.308594 151.167969 75.710938 149.367188 76.710938 147.167969 C 77.609375 145.066406 79.109375 142.769531 79.109375 140.269531 C 79.109375 137.570312 77.609375 135.269531 76.710938 133.167969 Z M 125.910156 197.167969 C 124.910156 194.96875 123.308594 193.269531 121.609375 191.667969 C 119.910156 190.066406 118.410156 188.066406 116.109375 187.167969 C 113.910156 186.269531 111.507812 186.066406 109.007812 186.066406 C 106.507812 186.066406 104.308594 186.96875 102.210938 187.867188 C 99.910156 188.769531 98.007812 189.96875 96.308594 191.566406 C 94.609375 193.269531 93.109375 194.96875 92.210938 197.269531 C 91.308594 199.367188 91.210938 201.667969 91.210938 204.167969 C 91.210938 206.667969 91.710938 208.769531 92.609375 210.867188 C 93.609375 213.066406 94.507812 215.167969 96.210938 216.867188 C 97.910156 218.46875 99.609375 220.46875 101.910156 221.367188 C 104.109375 222.269531 106.609375 221.667969 109.109375 221.667969 C 111.609375 221.667969 114.210938 222.367188 116.308594 221.566406 C 118.609375 220.667969 120.109375 218.46875 121.808594 216.867188 C 123.507812 215.167969 124.910156 213.367188 125.910156 211.167969 C 126.808594 209.066406 128.308594 206.769531 128.308594 204.269531 C 128.308594 201.566406 126.808594 199.367188 125.910156 197.167969 Z M 69.210938 202.96875 C 68.210938 200.769531 66.609375 199.066406 64.910156 197.46875 C 63.210938 195.867188 61.710938 193.867188 59.410156 192.96875 C 57.210938 192.066406 54.808594 191.867188 52.308594 191.867188 C 49.808594 191.867188 47.609375 192.769531 45.507812 193.667969 C 43.210938 194.566406 41.308594 195.769531 39.609375 197.367188 C 37.910156 199.066406 36.410156 200.769531 35.507812 203.066406 C 34.609375 205.167969 34.507812 207.46875 34.507812 209.96875 C 34.507812 212.46875 35.007812 214.566406 35.910156 216.667969 C 36.910156 218.867188 37.808594 220.96875 39.507812 222.667969 C 41.210938 224.269531 42.910156 226.269531 45.210938 227.167969 C 47.410156 228.066406 49.910156 227.46875 52.410156 227.46875 C 54.910156 227.46875 57.507812 228.167969 59.609375 227.367188 C 61.910156 226.46875 63.410156 224.269531 65.109375 222.667969 C 66.808594 220.96875 68.210938 219.167969 69.210938 216.96875 C 70.109375 214.867188 71.609375 212.566406 71.609375 210.066406 C 71.609375 207.367188 70.210938 205.167969 69.210938 202.96875 Z M 34.910156 161.46875 C 33.910156 159.269531 32.308594 157.566406 30.609375 155.96875 C 28.910156 154.367188 27.410156 152.367188 25.109375 151.46875 C 22.910156 150.566406 20.507812 150.367188 18.007812 150.367188 C 15.507812 150.367188 13.308594 151.269531 11.210938 152.167969 C 8.910156 153.066406 7.007812 154.269531 5.308594 155.867188 C 3.609375 157.566406 2.109375 159.269531 1.210938 161.566406 C 0.308594 163.667969 0.210938 165.96875 0.210938 168.46875 C 0.210938 170.96875 0.710938 173.066406 1.609375 175.167969 C 2.609375 177.367188 3.507812 179.46875 5.210938 181.167969 C 6.910156 182.769531 8.609375 184.769531 10.910156 185.667969 C 13.109375 186.566406 15.609375 185.96875 18.109375 185.96875 C 20.609375 185.96875 23.210938 186.667969 25.308594 185.867188 C 27.609375 184.96875 29.109375 182.769531 30.808594 181.167969 C 32.507812 179.46875 33.910156 177.667969 34.910156 175.46875 C 35.808594 173.367188 37.308594 171.066406 37.308594 168.566406 C 37.210938 165.867188 35.808594 163.566406 34.910156 161.46875 Z M 238.308594 146.46875 C 237.308594 144.269531 235.710938 142.570312 234.011719 140.96875 C 232.308594 139.367188 230.808594 137.367188 228.511719 136.46875 C 226.308594 135.570312 223.910156 135.367188 221.410156 135.367188 C 218.910156 135.367188 216.710938 136.269531 214.609375 137.167969 C 212.308594 138.070312 210.410156 139.269531 208.710938 140.867188 C 207.011719 142.570312 205.511719 144.269531 204.609375 146.566406 C 203.710938 148.667969 203.609375 150.96875 203.609375 153.46875 C 203.609375 155.96875 204.109375 158.066406 205.011719 160.167969 C 206.011719 162.367188 206.910156 164.46875 208.609375 166.167969 C 210.308594 167.769531 212.011719 169.769531 214.308594 170.667969 C 216.511719 171.566406 219.011719 170.96875 221.511719 170.96875 C 224.011719 170.96875 226.609375 171.667969 228.710938 170.867188 C 231.011719 169.96875 232.511719 167.769531 234.210938 166.167969 C 235.910156 164.46875 237.308594 162.667969 238.308594 160.46875 C 239.210938 158.367188 240.710938 156.066406 240.710938 153.566406 C 240.609375 150.867188 239.210938 148.566406 238.308594 146.46875 Z M 212.710938 97.96875 C 211.710938 95.769531 210.511719 93.570312 208.808594 91.867188 C 207.109375 90.269531 204.609375 89.769531 202.308594 88.867188 C 200.109375 87.96875 198.011719 87.269531 195.511719 87.269531 C 193.011719 87.269531 190.710938 87.46875 188.511719 88.269531 C 186.210938 89.167969 183.808594 90.070312 182.109375 91.667969 C 180.410156 93.367188 179.511719 95.769531 178.511719 97.96875 C 177.609375 100.070312 177.308594 102.46875 177.308594 104.96875 C 177.308594 107.46875 178.011719 109.570312 179.011719 111.769531 C 180.011719 113.96875 180.410156 116.667969 182.109375 118.367188 C 183.808594 119.96875 186.410156 120.667969 188.609375 121.570312 C 190.808594 122.46875 193.109375 123.667969 195.609375 123.667969 C 198.109375 123.667969 200.609375 122.769531 202.710938 121.96875 C 205.011719 121.070312 207.109375 119.769531 208.808594 118.070312 C 210.511719 116.367188 211.109375 113.867188 212.011719 111.667969 C 212.910156 109.570312 214.410156 107.46875 214.410156 104.96875 C 214.410156 102.46875 213.609375 100.070312 212.710938 97.96875 Z M 266.410156 109.367188 C 266.410156 111.867188 264.910156 113.96875 264.011719 116.070312 C 263.011719 118.269531 262.511719 120.769531 260.808594 122.46875 C 259.109375 124.070312 256.910156 125.46875 254.710938 126.367188 C 252.511719 127.269531 250.109375 128.070312 247.609375 128.070312 C 245.109375 128.070312 242.808594 126.867188 240.609375 125.96875 C 238.308594 125.070312 235.808594 124.367188 234.109375 122.769531 C 232.410156 121.070312 232.011719 118.367188 231.011719 116.167969 C 230.109375 114.070312 229.308594 111.867188 229.308594 109.367188 C 229.308594 106.867188 229.609375 104.570312 230.511719 102.367188 C 231.511719 100.167969 232.410156 97.667969 234.109375 96.070312 C 235.808594 94.46875 238.308594 93.570312 240.511719 92.667969 C 242.710938 91.769531 245.011719 91.667969 247.511719 91.667969 C 250.011719 91.667969 252.109375 92.46875 254.308594 93.269531 C 256.609375 94.167969 259.109375 94.570312 260.808594 96.269531 C 262.511719 97.96875 263.808594 100.167969 264.710938 102.367188 C 265.710938 104.46875 266.410156 106.96875 266.410156 109.367188" fill="#ed3243"/></g></g></svg>