<?xml version="1.0" encoding="UTF-8"?><svg xmlns="http://www.w3.org/2000/svg" xmlns:xlink="http://www.w3.org/1999/xlink" height="245.8" preserveAspectRatio="xMidYMid meet" version="1.0" viewBox="0.0 0.0 347.7 245.8" width="347.7" zoomAndPan="magnify"><defs><clipPath id="a"><path d="M 14 0 L 347.699219 0 L 347.699219 187 L 14 187 Z M 14 0"/></clipPath><clipPath id="b"><path d="M 0 31 L 347.699219 31 L 347.699219 245.800781 L 0 245.800781 Z M 0 31"/></clipPath></defs><g><g clip-path="url(#a)" id="change1_1"><path d="M 347.699219 165.5 L 320.800781 186.601562 L 222 141.101562 L 107.5 172.300781 L 70.699219 137.601562 L 205.800781 116.601562 L 135.699219 35.699219 L 20.800781 63 L 14.199219 31.199219 L 156.398438 0 L 220.800781 112.699219 L 347.699219 165.5" fill="#612d2a"/></g><g id="change2_1"><path d="M 24.199219 49.601562 L 24.101562 49.5 L 24 49.601562 Z M 23.898438 50.101562 L 23.898438 50 L 23.800781 50.199219 Z M 122.5 25.699219 Z M 204.601562 116.898438 C 204.699219 117 204.699219 117.101562 204.800781 117.199219 L 205 116.800781 Z M 205.199219 115.5 L 205.398438 115.800781 L 205.601562 115.398438 C 205.398438 115.398438 205.300781 115.398438 205.199219 115.5 Z M 112.601562 143.199219 C 104.398438 145.300781 93.898438 147.800781 83.398438 150.699219 L 82.199219 151 L 81.5 149.898438 C 79.398438 146.5 77.300781 143 75.199219 139.699219 C 72.398438 134.101562 62.398438 117.101562 56.300781 106.199219 C 49.601562 95.800781 48.199219 95.601562 42.199219 86.800781 C 38.398438 80 36.101562 75.101562 33.898438 70.398438 C 29.699219 63.601562 25.800781 57 22.101562 50.699219 L 20.800781 48.5 L 23.300781 47.898438 C 35.398438 45 45 41 56.5 39 C 79.601562 33.101562 101 29.5 123.199219 23.300781 C 135.199219 20.5 146.398438 17.101562 147.898438 18.398438 C 146.398438 18.699219 146.199219 18.898438 146 19.101562 C 147.300781 19.601562 136.5 21.5 135 22.398438 C 130.101562 23.5 128.601562 24.101562 125.300781 25 L 147.398438 19.601562 L 178.398438 70.398438 C 181.699219 75.601562 185.101562 81.101562 189.101562 88 C 192 93 193 93.898438 195.101562 97.199219 C 196.800781 100 196.800781 100.699219 198.699219 103.699219 C 200.601562 106.101562 203.699219 111.300781 206.601562 116.300781 L 207.199219 117.300781 L 206.101562 117.601562 C 200.898438 119 195.898438 120.398438 194 121.398438 C 186.699219 122.601562 180.699219 124.800781 169.101562 127.699219 C 147.699219 132.800781 132.199219 137 112.601562 143.199219 Z M 325.601562 175.800781 L 229.800781 233.699219 L 107.601562 161.898438 L 220.898438 129.199219 L 325.601562 175.800781" fill="#452120"/></g><g id="change3_1"><path d="M 291.101562 184.800781 C 291.101562 185.398438 291.101562 185.898438 289.898438 186.398438 C 288 187.199219 287.699219 187.300781 285.601562 187.101562 C 283.5 186.898438 282.601562 185.699219 282.601562 185.699219 C 282.601562 185.699219 282.601562 185.601562 282.5 185.601562 L 282.398438 185.5 C 281.898438 184.699219 281.699219 183.601562 281.398438 182.699219 C 281.101562 181.800781 280.199219 182.601562 279.601562 182.5 C 278 182.199219 277.199219 184.101562 277.199219 184.101562 C 277.199219 184.601562 277.300781 185.199219 277.398438 185.898438 C 277.5 186.300781 277.5 186.699219 277.5 187.101562 C 277.601562 187.398438 277.699219 187.601562 277.898438 187.800781 C 278.5 188.199219 280 188.398438 279.800781 189.199219 C 279.601562 190 279.199219 190.199219 277.101562 191 C 275 191.800781 271.800781 193.5 270.601562 193.601562 C 269.398438 193.699219 264.300781 195.199219 264 193 C 263.699219 191.101562 264 190.101562 262.898438 188.898438 C 262.699219 188.699219 261.699219 188.800781 261.5 188.699219 C 260.699219 188.101562 260.300781 188.5 259.601562 188.5 C 259.101562 188.5 258.699219 188.601562 258.300781 188.601562 C 252.898438 188.800781 249.398438 186.898438 246 186.898438 C 243 186.898438 239.800781 186.699219 235.101562 185.398438 C 235.101562 185.398438 231.898438 185 230.898438 186.5 C 230.800781 188.101562 229.300781 187.5 228.699219 188.300781 C 227.101562 190.699219 223.800781 190.601562 220.699219 189.898438 C 216.601562 188.898438 214.601562 192 210.699219 190.800781 C 208.898438 190.199219 210.300781 190.601562 206.898438 189.101562 C 203.398438 187.5 205.398438 185 207.300781 183.601562 C 207.699219 183.300781 208.101562 182.898438 208.398438 182.398438 C 208.898438 181.601562 206.699219 181.398438 206.800781 180.699219 C 206.898438 180.398438 206.699219 179.898438 206.800781 179.5 C 207 178.601562 208.5 179.398438 207.898438 178.699219 C 207.898438 178.699219 206.5 177.699219 205.199219 178.699219 C 204.199219 179.5 204 179.699219 201.101562 179.898438 C 194.601562 183 189.199219 178.699219 182.398438 176.800781 C 175.601562 175 168.300781 178.101562 163.398438 175.699219 C 158.5 173.300781 158.898438 173.699219 155.601562 171.898438 C 152.300781 170.101562 151.398438 167.398438 154.601562 166.398438 C 155.5 166.101562 156.699219 165.699219 157.898438 165.300781 C 159.601562 164.699219 160.699219 163.101562 160.800781 161.398438 L 158 161.898438 C 158 161.898438 151.699219 158.300781 150.300781 157.601562 C 150.101562 157.5 149.898438 157.398438 149.800781 157.300781 C 149.699219 157.199219 149.601562 157.199219 149.601562 157.199219 C 141.800781 153.300781 134.199219 148.398438 132.199219 144.101562 C 129.699219 138.5 130.101562 136.199219 124.898438 131.398438 C 120.601562 127.5 118.398438 127.398438 114.800781 119.199219 C 111.199219 111 98.398438 109.300781 93.800781 104 C 85.199219 93.699219 90 93 85.199219 81.300781 L 187 52 C 187.101562 52.800781 194.398438 51 194.5 51.800781 C 195.699219 74.199219 204.398438 91.898438 210.101562 113.5 C 211.398438 118.398438 213.300781 126.101562 216.300781 130.199219 C 220 135.398438 228 139.199219 233.601562 142.199219 C 248.898438 150.601562 254.398438 161 271.300781 165.300781 C 276.398438 166.601562 286.199219 168.699219 286.800781 173.800781 L 286.898438 173.800781 C 287.199219 175.199219 287.5 176.398438 287.601562 177.5 C 287.699219 178.199219 287.699219 178.898438 287.699219 179.601562 C 287.800781 181.5 288 183.101562 288.5 183.601562 C 288.300781 183.699219 291.101562 183.800781 291.101562 184.800781" fill="#f89f1f"/></g><g id="change4_1"><path d="M 147.101562 84.800781 C 143.300781 82.398438 138.300781 83 134 84.300781 C 130 85.601562 125.898438 87.800781 124.101562 91.601562 C 122.398438 95.199219 123.101562 99.398438 123.800781 103.199219 C 124.398438 106.398438 125.101562 109.699219 127.199219 112.101562 C 128.898438 114.101562 131.398438 115.398438 133.898438 116.300781 C 136.699219 117.300781 139.800781 118 142.800781 117.601562 C 148.101562 117 152.601562 113.300781 155.601562 109 C 156.699219 107.5 157.601562 105.898438 158.101562 104.101562 C 159.398438 99.800781 158.101562 95 155.199219 91.601562 C 152.300781 88.199219 152.601562 85.5 148.199219 84.898438 M 179.101562 73.800781 C 179.101562 73.800781 176.300781 74.5 172.800781 76 C 169.300781 77.5 166.199219 80.300781 165.199219 83.898438 C 164 88.601562 166.601562 93.398438 170 96.800781 C 174.300781 101.101562 180.199219 104.199219 186.300781 103.699219 C 192.398438 103.300781 198.199219 98.800781 199.101562 92.699219 C 199.898438 87.300781 196.800781 82.199219 193.601562 77.800781 C 192.699219 76.601562 191.800781 75.398438 190.5 74.5 C 187.601562 72.5 183.699219 72.898438 180.101562 73.398438 M 185.5 149.300781 C 186.300781 146.398438 183.800781 144.5 181.398438 143.699219 C 179.398438 143 177.199219 142.699219 175.5 141.5 C 173.898438 140.398438 172.898438 138.699219 171.800781 137.199219 C 168.5 133 163.800781 128.5 158.5 129.101562 C 156 129.398438 153 130.101562 151.601562 132.101562 C 150.699219 133.398438 150.601562 135 150.5 136.5 C 150.398438 138.601562 150.5 140.800781 150.699219 142.898438 C 150.800781 143.601562 151 144.300781 151.398438 144.898438 L 151.699219 145.300781 C 154.800781 149.601562 158.101562 151.398438 163.101562 153.199219 C 166.5 154.398438 170.300781 154.699219 173.800781 153.699219 C 176.898438 152.800781 181.601562 154 184.601562 151.101562 C 185 150.601562 185.300781 150 185.5 149.300781 Z M 227.398438 133 C 226.898438 131.300781 225.398438 130 223.699219 129.398438 C 222 128.800781 220.199219 128.699219 218.300781 128.601562 C 211.101562 128.300781 203.199219 128.101562 197.300781 132.199219 C 197.300781 132.199219 195.300781 134 193.199219 136 C 191.898438 137.199219 190.898438 139.300781 192.101562 140.601562 C 192.5 141 193 141.199219 193.5 141.398438 C 202.699219 145 213.601562 145.398438 222.300781 140.800781 C 223.800781 140 225.199219 139.101562 226.300781 137.699219 C 227.300781 136.300781 227.898438 134.601562 227.398438 133 Z M 277.800781 165.699219 C 275.601562 164.101562 272.699219 163.800781 270 163.699219 C 266.5 163.601562 261.300781 163.601562 261.300781 163.601562 C 257 164.101562 252.699219 165.5 248.898438 167.5 C 247.398438 168.300781 245.898438 169.300781 245.101562 170.800781 C 244.300781 172.300781 244.300781 174.398438 245.5 175.5 C 246.199219 176.101562 247.101562 176.300781 248 176.5 C 257.601562 178.699219 267.898438 177.300781 276.5 172.601562 C 277.898438 171.800781 279.5 170.699219 279.699219 169.101562 C 279.800781 167.699219 278.898438 166.5 277.800781 165.699219 Z M 238.898438 159.601562 C 238.601562 161.699219 236.5 162.898438 234.601562 163.800781 C 223.300781 169 210.101562 169.898438 198.199219 166.300781 C 197.101562 166 196 165.601562 195.199219 164.800781 C 193.699219 163.300781 193.800781 160.601562 195 158.800781 C 196.199219 157 198.199219 155.898438 200.101562 155 C 205.101562 152.699219 210.601562 151.398438 216.101562 151.101562 C 216.101562 151.101562 222.699219 151.601562 227 152 C 230.398438 152.300781 234.101562 153 236.699219 155.199219 C 238.199219 156.199219 239.199219 157.898438 238.898438 159.601562" fill="#e6242c"/></g><g clip-path="url(#b)" id="change5_1"><path d="M 185.601562 116.898438 C 185.699219 116 185.5 115.101562 185.300781 114.5 C 185.199219 114.199219 185.300781 113.898438 185.101562 113.601562 C 185 113.300781 184.699219 113.101562 184.699219 112.898438 C 184.5 112.398438 184.699219 111.898438 184.199219 111.5 C 184.601562 111.300781 184.398438 110.898438 184.398438 110.601562 C 184.199219 110.398438 184.300781 110 183.898438 109.898438 C 183.699219 109.699219 184.199219 109.101562 183.398438 109.199219 C 182.699219 109.300781 183 109.800781 183 110.199219 C 182.300781 110.398438 182.699219 110.5 182.601562 111 C 182.199219 111.101562 182.699219 111.101562 182.601562 111.300781 C 183 111.699219 182.601562 111.800781 182.601562 112.300781 C 183.199219 113.101562 182.898438 113.398438 182.898438 114.5 C 183.398438 115.699219 183.300781 116.699219 182.5 117.601562 C 182.601562 117.898438 180.5 120 180 119.898438 C 178.601562 120.5 176.898438 121 175 120.5 C 174.101562 120.5 173.199219 120.398438 172.5 120.5 C 171.800781 120.601562 168.898438 120.800781 168 120 C 166.800781 120.101562 165.398438 119.699219 164.398438 119.699219 C 164.199219 119.101562 163.699219 119.300781 163.199219 118.800781 C 162.398438 117.800781 161.800781 116.601562 160.898438 115.898438 C 160.800781 115.601562 160.800781 115.300781 160.5 115.101562 C 160.601562 114.898438 160.5 114.101562 159.898438 114.699219 C 159.398438 114.601562 160.101562 115 159.699219 115.199219 C 159.300781 115.5 159.300781 115 158.699219 115.601562 C 158.800781 117.398438 160.199219 118.5 161 120 C 161.699219 120.5 162.199219 121.101562 162.699219 121.699219 C 164 122.300781 165.5 122.699219 166.300781 122.898438 C 166.601562 123 166.898438 123.101562 167.199219 123.199219 C 167.199219 123.199219 173.300781 125.5 179.300781 123.199219 C 179.898438 123 180.5 122.800781 181 122.601562 C 182.101562 122.101562 183.300781 121.5 184.398438 120.300781 C 184.601562 119.898438 184.300781 119.601562 184.5 119.199219 C 185.199219 118.699219 185.5 117.800781 185.601562 116.898438 Z M 77.601562 93.699219 C 78.601562 94.601562 79.601562 95.5 80.800781 96.300781 C 82.5 97.398438 84.398438 98.300781 86.300781 98.800781 C 93.101562 105.199219 101.5 112.898438 105 115.5 C 111.300781 120.199219 118.101562 127.300781 126.398438 140 C 134.699219 152.699219 137 154.898438 152.601562 161.101562 C 154.699219 161.898438 157.101562 162.898438 159.800781 164 C 160.398438 163.300781 160.800781 162.300781 160.898438 161.300781 L 160.898438 160.898438 C 160.898438 160.898438 152.699219 157.398438 151.398438 156.699219 C 151.199219 156.601562 151 156.5 150.898438 156.398438 C 150.800781 156.300781 150.699219 156.300781 150.699219 156.300781 C 142.898438 152.398438 136.601562 147.398438 134.699219 143.101562 C 132.199219 137.5 131.898438 135 126.601562 130.300781 C 122.300781 126.398438 120.101562 126.300781 116.5 118.101562 C 112.898438 109.898438 105.199219 110.898438 100.601562 105.5 C 98 102.5 96.800781 100 96.300781 97.601562 C 98 96.699219 99.5 95.601562 101.101562 94.699219 C 108.300781 90 115.800781 85.800781 125.699219 81.5 C 128.101562 80.398438 129 79.398438 131.5 78.398438 C 132.898438 77.898438 134.199219 77.398438 135.699219 76.898438 C 137.101562 76.398438 138.601562 75.898438 140.101562 75.398438 C 141.601562 74.898438 143.101562 74.398438 144.601562 73.898438 C 146.101562 73.398438 147.601562 72.898438 149.101562 72.398438 C 150.601562 71.898438 152.101562 71.5 153.601562 71.101562 C 155.101562 70.699219 156.5 70.300781 157.898438 69.898438 C 160.699219 69.101562 163.300781 68.601562 165.601562 68 C 167.898438 67.398438 170 67.300781 172.101562 66.800781 C 174.199219 66.398438 175.699219 66.101562 177.601562 65.800781 C 185 65.199219 192.601562 65.101562 200.300781 65.5 C 201.199219 65.601562 202.199219 65.601562 203 65.101562 C 204.398438 64.300781 204.699219 62.300781 204.5 60.601562 C 204.398438 59.898438 204.300781 59.300781 204.199219 58.699219 C 204.5 59.699219 204.699219 61 205.101562 60.398438 C 205 57.5 204.398438 53.101562 203.398438 51.601562 C 202.398438 50.199219 201.199219 48.800781 199.800781 47.800781 C 198.398438 46.800781 196.800781 46 195.199219 45.398438 C 193.699219 44.800781 192.101562 44.300781 190.5 43.898438 C 187.398438 43.101562 184.199219 42.699219 181.199219 42.398438 C 174.800781 42.199219 169 42.601562 163.800781 43.101562 C 153.898438 44.699219 143.398438 47.601562 137.800781 49.300781 C 133.800781 50.5 127 52.398438 125.199219 53.699219 C 124.800781 54 123.898438 53.898438 124.199219 53.800781 C 114.5 57.5 107.898438 59.398438 100.398438 63.398438 C 97.300781 65 94.898438 66.699219 92.398438 68.5 C 88.898438 70.199219 85.398438 72.101562 82 74.601562 C 80.300781 75.800781 78.601562 77.199219 77.199219 78.800781 C 76.5 79.601562 75.800781 80.5 75.300781 81.5 C 75 82 74.898438 82.5 74.699219 83.101562 C 74.5 83.601562 74.398438 84.199219 74.300781 84.699219 C 73.601562 86.199219 73.601562 87.898438 74 89.601562 C 74.199219 91.5 76.601562 92.699219 77.601562 93.699219 Z M 281.5 182.601562 C 281.199219 181.699219 280.898438 180.898438 280.199219 180.800781 C 278.601562 180.5 277.199219 180.800781 277.300781 184 Z M 70.800781 155.398438 C 70.699219 155.398438 70.699219 155.300781 70.800781 155.398438 Z M 68.199219 154.699219 C 68.199219 154.699219 68.101562 154.699219 68.199219 154.699219 Z M 347.699219 165.5 L 347.699219 183.800781 L 332.898438 191.300781 C 331.199219 192.300781 329.800781 193.199219 327.898438 194.398438 C 325.800781 195.601562 323.699219 196.699219 321.300781 198 C 312 203.300781 306.300781 207.601562 294.398438 212.800781 C 291.699219 214.199219 290.601562 215.199219 288 216.601562 C 265.800781 227.199219 253 233.5 230.699219 245.300781 C 230.5 245.398438 230.398438 245.5 230.199219 245.5 L 229.601562 245.800781 L 229.101562 245.5 C 224.699219 242.898438 222 242.101562 219.398438 239.898438 C 210.800781 235.699219 202.398438 231.199219 194.898438 226.800781 C 191.601562 225.601562 188.5 224.300781 185 222.699219 C 176.398438 218.699219 169.898438 214.5 159.398438 209.300781 C 159.699219 209.5 159.101562 208.699219 158.601562 208.601562 C 156.199219 208.101562 149.300781 204.199219 145.101562 202.101562 C 139.199219 199.101562 128.199219 193.699219 118.300781 188.898438 C 113.300781 186 107.601562 183 101.398438 179.800781 C 94.898438 176 87.5 172.101562 80.398438 168.101562 L 79.5 167.601562 L 79.601562 166.601562 C 79.601562 166.601562 82 156 82.898438 151 C 79.800781 152.398438 73.101562 155 69.699219 157.199219 L 68.800781 157.800781 L 68.199219 156.800781 C 67.199219 155.199219 65.699219 152.601562 64.101562 149.898438 C 61.898438 145.300781 60 143.300781 59 140.101562 C 54.300781 132.5 49.898438 124.601562 46.199219 117.398438 C 44.199219 114.800781 42.398438 112.300781 40.398438 109.199219 C 35.601562 101.699219 32.601562 95.101562 26.898438 85.800781 C 27.101562 86.101562 27 85.199219 26.601562 84.800781 C 24.898438 83.199219 27.398438 88 25.101562 84.199219 C 21.898438 78.898438 16 69.101562 10.5 60.199219 C 8 55.398438 5.101562 50.101562 1.699219 44.398438 C 1.300781 43.699219 1 43 0.601562 42.199219 L 0 40.800781 L 1.199219 39.800781 C 5 36.699219 14.101562 31.199219 14.101562 31.199219 C 14.101562 31.199219 22.398438 43.199219 25.101562 49.199219 C 24.898438 50 24.199219 48.800781 23.601562 47.898438 L 24.601562 49.699219 L 41.101562 78 C 42.101562 79.5 43.101562 80.800781 44.199219 82.5 C 45.5 84.398438 46.5 86.300781 47.898438 88.398438 C 53.398438 96.800781 56 98.898438 61.5 109.699219 C 63 112.101562 64 113.101562 65.398438 115.5 C 72.101562 127.800781 84.101562 149.800781 84.101562 149.800781 L 228.800781 223.800781 L 346.199219 165.398438 Z M 209.398438 179.601562 C 209.5 179.300781 209.5 178.898438 209.601562 178.601562 C 209.800781 177.699219 209.398438 176.898438 208.800781 176.199219 C 208.800781 176.199219 207.398438 175.199219 206.101562 176.199219 C 205.101562 176.898438 204.101562 179.398438 201.300781 179.601562 C 203.699219 180.5 206.101562 181.300781 208.398438 182.101562 C 208.898438 181.199219 209.199219 180.300781 209.398438 179.601562 Z M 251.601562 189.800781 C 246.699219 189.199219 237.800781 189.699219 228.699219 188 C 229.300781 187.101562 229.699219 186 229.800781 184.398438 C 230.699219 182.898438 234 183.300781 234 183.300781 C 238.800781 184.699219 243.300781 185.601562 246.300781 185.601562 C 249.699219 185.601562 253.199219 187.5 258.601562 187.300781 C 259 187.300781 259.5 187.300781 259.898438 187.199219 C 260.601562 187.199219 261.601562 187.398438 262.398438 188 C 262.699219 188.199219 262.800781 188.398438 263 188.601562 C 259.300781 189.898438 255.5 190.199219 251.601562 189.800781" fill="#d25e34"/></g></g></svg>